<mxfile host="app.diagrams.net" modified="2024-07-03T14:25:24.734Z" agent="Mozilla/5.0 (Windows NT 10.0; Win64; x64) AppleWebKit/537.36 (KHTML, like Gecko) Chrome/126.0.0.0 Safari/537.36" version="24.6.4" etag="35UtHwVITvpPEwjwDw06" type="github">
  <diagram name="Page-1" id="7g5zsfmm-gU_bnDPdnbi">
    <mxGraphModel>
      <root>
        <mxCell id="0" />
        <mxCell id="1" parent="0" />
      </root>
    </mxGraphModel>
  </diagram>
</mxfile>
